<svg width="48" height="48" viewBox="0 0 24 24" fill="none" xmlns="http://www.w3.org/2000/svg"><rect width="24" height="24" fill="none" rx="0" ry="0"></rect><path fill-rule="evenodd" clip-rule="evenodd" d="M6.02987 3.90308H18.0999C19.6399 3.90308 20.8899 5.15308 20.8899 6.69308V18.7631C20.8899 20.3031 19.6399 21.5531 18.0999 21.5531H6.02987C4.48987 21.5531 3.23987 20.3031 3.23987 18.7631V6.69308C3.23987 5.15308 4.48987 3.90308 6.02987 3.90308ZM18.0999 20.3531C18.9799 20.3531 19.6899 19.6431 19.6899 18.7631V6.69308C19.6899 5.81308 18.9799 5.10308 18.0999 5.10308H6.02987C5.14987 5.10308 4.43987 5.81308 4.43987 6.69308V18.7631C4.43987 19.6431 5.14987 20.3531 6.02987 20.3531H18.0999ZM11.9799 7.72315C12.7299 7.15315 13.8099 7.00315 14.9199 7.32315C15.4499 7.47315 15.7599 8.02315 15.6099 8.55315C15.4499 9.08315 14.8999 9.39315 14.3699 9.24315C13.8899 9.10315 13.4199 9.13315 13.1799 9.31315C13.1759 9.31707 13.1712 9.32148 13.1659 9.3265C13.1027 9.38549 12.9499 9.52842 12.9499 9.94315V11.2231H13.9599C14.5099 11.2231 14.9599 11.6731 14.9599 12.2231C14.9599 12.7731 14.5099 13.2231 13.9599 13.2231H12.9499V17.2931C12.9499 17.8431 12.4999 18.2931 11.9499 18.2931C11.3999 18.2931 10.9499 17.8431 10.9499 17.2931V13.2231H10.1099C9.55986 13.2231 9.10986 12.7731 9.10986 12.2231C9.10986 11.6731 9.55986 11.2231 10.1099 11.2231H10.9499V9.94315C10.9499 9.01315 11.3199 8.22315 11.9799 7.72315Z" fill="#000000"></path></svg>