<svg width="48" height="48" viewBox="0 0 24 24" fill="none" xmlns="http://www.w3.org/2000/svg"><rect width="24" height="24" fill="none" rx="0" ry="0"></rect><path fill-rule="evenodd" clip-rule="evenodd" d="M6.52986 21.5531H18.5999C20.1399 21.5531 21.3899 20.2931 21.3899 18.7631V6.69308C21.3899 5.15308 20.1399 3.90308 18.5999 3.90308H6.52986C4.98986 3.90308 3.73987 5.15308 3.73987 6.69308V18.7631C3.73987 20.3031 4.98986 21.5531 6.52986 21.5531ZM4.94986 6.69308C4.94986 5.81308 5.65987 5.10308 6.53987 5.10308H18.6099C19.4899 5.10308 20.1999 5.81308 20.1999 6.69308V18.7631C20.1999 19.6431 19.4899 20.3531 18.6099 20.3531H6.53987C5.65987 20.3531 4.94986 19.6431 4.94986 18.7631V6.69308ZM16.8499 17.0231C16.8499 17.5731 17.2999 18.0231 17.8499 18.0231C18.3999 18.0231 18.8499 17.5831 18.8399 17.0231V8.42305C18.8399 8.07305 18.6599 7.75305 18.3699 7.57305C18.0799 7.39305 17.7099 7.38305 17.3999 7.53305L12.5699 9.94305L7.73993 7.53305C7.42993 7.37305 7.05993 7.39305 6.76993 7.57305C6.47993 7.75305 6.29993 8.07305 6.29993 8.42305V17.0231C6.29993 17.5731 6.74993 18.0231 7.29993 18.0231C7.84993 18.0231 8.29993 17.5731 8.29993 17.0231V10.0431L12.1299 11.9531C12.4099 12.0931 12.7399 12.0931 13.0199 11.9531L16.8499 10.0431V17.0231Z" fill="#000000"></path></svg>