<svg width="48" height="48" viewBox="0 0 24 24" fill="none" xmlns="http://www.w3.org/2000/svg"><rect width="24" height="24" fill="none" rx="0" ry="0"></rect><path fill-rule="evenodd" clip-rule="evenodd" d="M3.19922 14.588C3.19978 14.8873 3.43882 15.1304 3.73242 15.1304H20.2246C20.5186 15.1304 20.7588 14.8867 20.7588 14.5869V13.7891C20.7588 13.4893 20.5186 13.2451 20.2246 13.2451H3.73242C3.45397 13.2451 3.22458 13.4642 3.20118 13.7422L3.19922 14.5869C3.19922 14.5873 3.19922 14.5876 3.19922 14.588ZM2.00205 13.7037L2.01855 6.59863C2.01855 6.26758 2.28711 6 2.61816 6H2.61914C2.95117 6.00098 3.21875 6.27002 3.21777 6.60156L3.20494 12.1276C3.37133 12.0739 3.54858 12.0449 3.73242 12.0449H8.87421V9.08564H18.1402C19.7118 9.08564 20.9859 10.3597 20.9859 11.9314V12.2222C21.5612 12.5063 21.958 13.1018 21.958 13.7891V14.5869C21.958 15.5483 21.1807 16.3306 20.2246 16.3306H19.9258V17.3857C19.9258 17.7173 19.6572 17.9858 19.3262 17.9858C18.9951 17.9858 18.7266 17.7173 18.7266 17.3857V16.3306H5.24512V17.3857C5.24512 17.7173 4.97656 17.9858 4.64551 17.9858C4.31445 17.9858 4.0459 17.7173 4.0459 17.3857V16.3306H3.73242C2.77826 16.3306 2.0015 15.5498 2 14.5897C2 14.5888 2 14.5878 2 14.5869V14.5854M6.02148 10.9214C5.00879 10.9214 4.18555 10.0977 4.18555 9.08545C4.18555 8.07324 5.00879 7.25 6.02148 7.25C7.03418 7.25 7.85742 8.07324 7.85742 9.08545C7.85742 10.0977 7.03418 10.9214 6.02148 10.9214ZM6.02148 8.25C5.56055 8.25 5.18555 8.625 5.18555 9.08545C5.18555 9.54639 5.56055 9.92139 6.02148 9.92139C6.48242 9.92139 6.85742 9.54639 6.85742 9.08545C6.85742 8.625 6.48242 8.25 6.02148 8.25Z" fill="#000000"></path></svg>