<svg width="48" height="48" viewBox="0 0 24 24" fill="none" xmlns="http://www.w3.org/2000/svg"><rect width="24" height="24" fill="none" rx="0" ry="0"></rect><path fill-rule="evenodd" clip-rule="evenodd" d="M12.8346 2C11.8214 2 11 2.82137 11 3.83458C11 5.25862 10.6684 6.66311 10.0316 7.93681L9.3 9.4L7.5 10.4286V9C7.5 8.44772 7.05228 8 6.5 8H3C2.44772 8 2 8.44772 2 9V21C2 21.5523 2.44772 22 3 22H6.5C7.05228 22 7.5 21.5523 7.5 21V20.5714L10 22H17.9262C19.407 22 20.6662 20.9197 20.8914 19.4562L21.9683 12.4562C22.2479 10.6389 20.8418 9 19.0032 9H15.75L16.2014 7.1943C16.3997 6.40109 16.5 5.58656 16.5 4.76894V4C16.5 2.89543 15.6046 2 14.5 2H12.8346ZM4 9.5C3.72386 9.5 3.5 9.72386 3.5 10V20C3.5 20.2761 3.72386 20.5 4 20.5H5.5C5.77614 20.5 6 20.2761 6 20V10C6 9.72386 5.77614 9.5 5.5 9.5H4ZM13.7667 10.5L14.5417 7.59367C14.647 7.19865 14.7176 6.79516 14.7525 6.38783L14.9535 4.0427C14.9785 3.75078 14.7483 3.5 14.4553 3.5H12.959C12.6994 3.5 12.483 3.69866 12.4608 3.9573L12.3226 5.57004C12.2417 6.51353 11.9702 7.43081 11.5246 8.26635L10.2918 10.5779L8 11.9V19.1L10.4186 20.5H17.9082C18.6507 20.5 19.2815 19.9568 19.3916 19.2225L20.4416 12.2225C20.5777 11.3156 19.8753 10.5 18.9582 10.5H13.7667Z" fill="#000000"></path></svg>