<svg width="48" height="48" viewBox="0 0 24 24" fill="none" xmlns="http://www.w3.org/2000/svg"><rect width="24" height="24" fill="none" rx="0" ry="0"></rect><path fill-rule="evenodd" clip-rule="evenodd" d="M12.9538 3.30298C15.3638 3.30298 17.6338 4.24298 19.3438 5.95298C21.0438 7.66298 21.9838 9.93298 22.0038 12.333C22.0038 14.743 21.0638 17.003 19.3538 18.713C17.6438 20.413 15.3738 21.353 12.9638 21.353C12.0438 21.353 11.1538 21.223 10.3138 20.963C10.0738 20.883 9.8338 20.793 9.6038 20.703L3.88379 22.133L3.88378 22.133C3.83378 22.143 3.78379 22.153 3.7338 22.153C3.5438 22.153 3.3738 22.063 3.2538 21.913C3.1038 21.723 3.0838 21.463 3.2038 21.253L5.4238 17.303C4.4438 15.823 3.9238 14.113 3.9238 12.333C3.9238 9.91298 4.8638 7.65298 6.5738 5.94298C8.2738 4.24298 10.5338 3.30298 12.9538 3.30298ZM12.9538 20.163C15.0438 20.163 17.0138 19.353 18.4938 17.873C19.9738 16.393 20.7838 14.433 20.7838 12.343C20.7838 10.253 19.9738 8.28298 18.4938 6.80298C17.0138 5.33298 15.0438 4.51298 12.9538 4.51298C10.8538 4.51298 8.8938 5.32298 7.4238 6.80298C5.9438 8.28298 5.13379 10.253 5.13379 12.343C5.13379 14.003 5.6438 15.593 6.6238 16.933C6.7638 17.123 6.77379 17.383 6.66379 17.583L4.94379 20.643L9.50381 19.503C9.63381 19.473 9.76379 19.483 9.88379 19.533C10.1338 19.643 10.3938 19.743 10.6638 19.823C11.4038 20.053 12.1538 20.163 12.9538 20.163ZM16.1737 13.113L18.5137 15.453C18.6237 15.563 18.6937 15.733 18.6937 15.893C18.6937 16.053 18.6237 16.203 18.5137 16.313L17.3737 17.453C16.8937 17.923 16.2637 18.183 15.6137 18.183C15.4137 18.183 15.2137 18.153 15.0137 18.103C11.2737 17.143 8.33372 14.213 7.33372 10.463C7.10372 9.623 7.35373 8.713 7.98373 8.083L9.13372 6.933C9.37372 6.703 9.75373 6.703 9.98373 6.933L12.3237 9.273C12.4437 9.383 12.5037 9.533 12.5037 9.693C12.5037 9.853 12.4337 10.003 12.3237 10.113L11.3337 11.103L14.3337 14.103L15.3237 13.113C15.5637 12.883 15.9437 12.883 16.1737 13.113ZM15.3137 16.923C15.7437 17.033 16.2037 16.903 16.5237 16.583L17.2337 15.873L15.7437 14.383L15.1137 15.013C14.6837 15.443 13.9837 15.443 13.5537 15.013L10.4137 11.873C9.98372 11.443 9.98372 10.743 10.4137 10.313L11.0437 9.683L9.55372 8.193L8.83372 8.913C8.51372 9.243 8.38372 9.703 8.49372 10.133C9.39372 13.473 12.0037 16.073 15.3137 16.923Z" fill="#000000"></path></svg>